#!OML:ASF F:\VICON\USERDATA\INSTALL\rory3\rory3.ASF
:FULLY-SPECIFIED
:DEGREES
46
root 1.10834 17.8059 -16.9165 5.38007 0.578339 -0.209311
lowerback 5.54324 -0.534393 -1.12893
upperback 0.317134 -0.71997 2.16483
thorax -2.74002 -0.332742 2.92349
lowerneck -19.5664 -4.17626 -8.93656
upperneck 14.6318 -4.279 5.78919
head 8.06207 -1.96002 2.85199
rclavicle -9.93923e-016 -1.23246e-014
rhumerus -31.2336 -8.58689 -80.0992
rradius 32.9412
rwrist 5.43575
rhand -13.0134 13.8354
rfingers 7.12502
rthumb 13.0803 -15.7344
lclavicle -9.93923e-016 -1.23246e-014
lhumerus -28.9749 6.36769 86.5149
lradius 28.5695
lwrist -5.83175
lhand -18.3402 24.7375
lfingers 7.12502
lthumb 7.94196 54.5683
rfemur -9.08787 4.69007 21.0838
rtibia 20.176
rfoot -10.1115 -11.3176
rtoes 0.292272
lfemur -10.0151 -3.96801 -20.1127
ltibia 20.8136
lfoot -12.4184 4.35079
ltoes 0.436294
47
root 1.10844 17.8065 -16.9117 5.37804 0.597475 -0.24349
lowerback 5.50115 -0.54525 -1.09331
upperback 0.347406 -0.73219 2.17791
thorax -2.68475 -0.34012 2.91685
lowerneck -19.4453 -4.18197 -8.98006
upperneck 14.5613 -4.28914 5.81903
head 8.02029 -1.96576 2.86842
rclavicle 3.97569e-015 1.51076e-014
rhumerus -31.271 -8.59946 -80.112
rradius 32.9933
rwrist 5.44453
rhand -9.41799 9.54737
rfingers 7.12502
rthumb 16.544 -19.7674
lclavicle 3.97569e-015 1.51076e-014
lhumerus -29.0789 6.38197 86.5033
lradius 28.7046
lwrist -5.9002
lhand -18.5278 24.9267
lfingers 7.12502
lthumb 7.76096 54.7643
rfemur -9.03494 4.63412 21.1262
rtibia 20.1557
rfoot -10.1697 -11.2778
rtoes 0.295794
lfemur -10.039 -3.97131 -20.0732
ltibia 20.8609
lfoot -12.4201 4.33025
ltoes 0.622815
48
root 1.10487 17.8065 -16.9098 5.34649 0.610987 -0.225638
lowerback 5.59288 -0.5729 -1.16222
upperback 0.383192 -0.773455 2.19033
thorax -2.69577 -0.360012 2.97284
lowerneck -19.4254 -4.1884 -8.98395
upperneck 14.415 -4.29387 5.82103
head 7.96843 -1.96728 2.86835
rclavicle -1.13307e-014 2.34566e-014
rhumerus -31.2906 -8.42229 -80.2184
rradius 33.1942
rwrist 5.31905
rhand -11.5812 13.1392
rfingers 7.12502
rthumb 14.4605 -16.3369
lclavicle -1.13307e-014 2.34566e-014
lhumerus -28.9984 6.51852 86.4553
lradius 28.6499
lwrist -6.05123
lhand -18.5471 24.815
lfingers 7.12502
lthumb 7.74228 54.6533
rfemur -8.97569 4.77546 21.1262
rtibia 20.1298
rfoot -10.1344 -11.4233
rtoes 0.615566
lfemur -9.98313 -3.97936 -20.0664
ltibia 20.8649
lfoot -12.5266 4.30517
ltoes 0.871227
49
root 1.10342 17.8078 -16.907 5.4074 0.578184 -0.195198
lowerback 5.57998 -0.575961 -1.23764
upperback 0.389794 -0.782163 2.19698
thorax -2.68011 -0.363698 3.02269
lowerneck -19.3719 -4.19033 -8.94047
upperneck 14.2485 -4.3007 5.78404
head 7.90234 -1.9714 2.84734
rclavicle 7.45443e-015 -6.75868e-015
rhumerus -31.2976 -8.2037 -80.341
rradius 33.3225
rwrist 5.04307
rhand -9.61579 10.0096
rfingers 7.12502
rthumb 16.3536 -19.3209
lclavicle 7.45443e-015 -6.75868e-015
lhumerus -28.9072 6.50348 86.4519
lradius 28.579
lwrist -6.03084
lhand -18.4019 24.8824
lfingers 7.12502
lthumb 7.88248 54.7155
rfemur -9.03625 4.79838 21.0915
rtibia 20.0992
rfoot -10.0715 -11.4149
rtoes 0.637316
lfemur -10.0345 -3.8899 -20.1014
ltibia 20.8138
lfoot -12.509 4.27603
ltoes 0.886769
50
root 1.10529 17.8107 -16.9014 5.4629 0.514031 -0.143548
lowerback 5.4795 -0.559994 -1.27049
upperback 0.383342 -0.7635 2.1679
thorax -2.63156 -0.354715 3.00808
lowerneck -19.1401 -4.19539 -8.95074
upperneck 14.0923 -4.32689 5.81563
head 7.8139 -1.98393 2.85743
rclavicle 4.67144e-015 8.34896e-015
rhumerus -31.4083 -8.06572 -80.4295
rradius 33.4383
rwrist 4.88228
rhand -11.2235 12.681
rfingers 7.12502
rthumb 14.8052 -16.7702
lclavicle 4.67144e-015 8.34896e-015
lhumerus -28.8308 6.51431 86.422
lradius 28.4448
lwrist -5.95121
lhand -18.4099 24.7923
lfingers 7.12502
lthumb 7.8747 54.6256
rfemur -9.05905 4.80493 21.0135
rtibia 20.055
rfoot -10.1135 -11.3752
rtoes 0.781429
lfemur -10.0957 -3.8204 -20.1874
ltibia 20.7885
lfoot -12.3962 4.29698
ltoes 0.766419
51
root 1.10873 17.8129 -16.8939 5.44189 0.450737 -0.151681
lowerback 5.42434 -0.529556 -1.17303
upperback 0.422417 -0.718671 2.11783
thorax -2.56491 -0.334881 2.89651
lowerneck -18.9729 -4.2251 -8.9188
upperneck 13.9229 -4.38767 5.82598
head 7.73344 -2.01158 2.84851
rclavicle -7.65321e-015 1.03368e-014
rhumerus -31.4668 -8.10567 -80.472
rradius 33.5694
rwrist 4.97186
rhand -11.5365 13.3044
rfingers 7.12502
rthumb 14.5036 -16.1687
lclavicle -7.65321e-015 1.03368e-014
lhumerus -28.7076 6.57594 86.3527
lradius 28.3203
lwrist -6.09926
lhand -18.1275 25.11
lfingers 7.12502
lthumb 8.14724 54.933
rfemur -8.98867 4.91813 21.0122
rtibia 20.0255
rfoot -10.1397 -11.4519
rtoes 0.672864
lfemur -10.0369 -3.86955 -20.2046
ltibia 20.8049
lfoot -12.3505 4.3917
ltoes 1.36043
52
root 1.10979 17.8098 -16.892 5.44582 0.362152 -0.179518
lowerback 5.48429 -0.495993 -1.14149
upperback 0.392789 -0.671972 2.11002
thorax -2.63224 -0.310926 2.86838
lowerneck -18.7766 -4.26395 -8.83483
upperneck 13.7764 -4.46775 5.77946
head 7.65465 -2.05183 2.81017
rclavicle 6.55989e-015 -1.59028e-015
rhumerus -31.5914 -8.10265 -80.4806
rradius 33.6941
rwrist 4.96788
rhand -11.4802 13.2292
rfingers 7.12502
rthumb 14.5579 -16.24
lclavicle 6.55989e-015 -1.59028e-015
lhumerus -28.7846 6.54857 86.3187
lradius 28.265
lwrist -6.21197
lhand -18.0829 25.081
lfingers 7.12502
lthumb 8.19035 54.9022
rfemur -9.04759 4.99923 21.0327
rtibia 20.088
rfoot -10.128 -11.4492
rtoes 0.115216
lfemur -10.0171 -3.87888 -20.1892
ltibia 20.8229
lfoot -12.3925 4.53081
ltoes 1.39287
53
root 1.10704 17.8067 -16.8946 5.45452 0.382697 -0.225265
lowerback 5.67529 -0.479327 -1.13441
upperback 0.316997 -0.648187 2.12505
thorax -2.81878 -0.296192 2.8818
lowerneck -18.6754 -4.31832 -8.76956
upperneck 13.7225 -4.56031 5.7442
head 7.62431 -2.09704 2.77677
rclavicle 9.24349e-015 -1.78906e-014
rhumerus -31.7651 -8.08189 -80.4727
rradius 33.7747
rwrist 4.75943
rhand -11.5095 13.3442
rfingers 7.12502
rthumb 14.5296 -16.127
lclavicle 9.24349e-015 -1.78906e-014
lhumerus -28.9247 6.35688 86.3343
lradius 28.1951
lwrist -6.06031
lhand -18.4562 24.5768
lfingers 7.12502
lthumb 7.83005 54.4118
rfemur -9.1481 5.08396 21.0981
rtibia 20.2126
rfoot -10.1423 -11.5278
rtoes 0.0207839
lfemur -10.0618 -3.90396 -20.1037
ltibia 20.8786
lfoot -12.5102 4.56514
ltoes 0.691366
54
root 1.1046 17.8059 -16.8992 5.58838 0.648057 -0.133889
lowerback 5.71426 -0.535762 -1.16869
upperback 0.269848 -0.726691 2.07118
thorax -2.88497 -0.333946 2.85268
lowerneck -18.9182 -4.27058 -8.67274
upperneck 13.904 -4.49909 5.70729
head 7.71763 -2.06339 2.75494
rclavicle -7.25564e-015 1.63003e-014
rhumerus -31.7785 -8.18559 -80.508
rradius 33.8117
rwrist 4.70596
rhand -11.5407 13.398
rfingers 7.12502
rthumb 14.4996 -16.0753
lclavicle -7.25564e-015 1.63003e-014
lhumerus -28.9095 6.20446 86.2921
lradius 28.3379
lwrist -6.2842
lhand -17.6138 25.3569
lfingers 7.12502
lthumb 8.64308 55.1599
rfemur -9.3423 4.92214 21.0216
rtibia 20.3561
rfoot -10.2364 -11.6657
rtoes 0.262057
lfemur -10.2671 -3.99742 -20.1456
ltibia 20.9648
lfoot -12.6344 4.37052
ltoes 0.367823
55
root 1.10046 17.8057 -16.9095 5.84061 0.995129 -0.0717819
lowerback 5.63681 -0.648796 -1.18432
upperback 0.21673 -0.878156 2.05331
thorax -2.88763 -0.408782 2.85432
lowerneck -19.1967 -4.21119 -8.70664
upperneck 14.0768 -4.40613 5.79409
head 7.81815 -2.00913 2.79987
rclavicle 1.56046e-014 -1.70955e-014
rhumerus -31.7016 -8.20042 -80.5637
rradius 33.8714
rwrist 4.73379
rhand -11.5457 13.2516
rfingers 7.12502
rthumb 14.4947 -16.2221
lclavicle 1.56046e-014 -1.70955e-014
lhumerus -28.8203 6.27303 86.2103
lradius 28.4792
lwrist -6.74447
lhand -16.6486 26.0035
lfingers 7.12502
lthumb 9.57444 55.7659
rfemur -9.68686 4.61606 20.977
rtibia 20.5038
rfoot -10.2391 -11.6989
rtoes 0.797592
lfemur -10.6429 -4.03691 -20.1463
ltibia 21.0114
lfoot -12.6168 4.00665
ltoes 0.535164
56
root 1.09727 17.8051 -16.9141 5.95135 1.04292 -0.0763223
lowerback 5.62563 -0.678618 -1.22557
upperback 0.250796 -0.919853 2.08751
thorax -2.8426 -0.429679 2.91565
lowerneck -19.5506 -4.24365 -8.74532
upperneck 14.2817 -4.41822 5.81142
head 7.94891 -2.01076 2.80828
rclavicle -9.93923e-017 2.42517e-014
rhumerus -31.5281 -8.1296 -80.5967
rradius 33.8782
rwrist 4.68122
rhand -11.5758 13.2495
rfingers 7.12502
rthumb 14.4657 -16.2262
lclavicle -9.93923e-017 2.42517e-014
lhumerus -28.5831 6.37481 86.2601
lradius 28.2168
lwrist -6.42756
lhand -17.5156 24.9871
lfingers 7.12502
lthumb 8.73783 54.7862
rfemur -9.9039 4.61963 20.9782
rtibia 20.6407
rfoot -10.2881 -11.6881
rtoes 1.36478
lfemur -10.844 -4.04121 -20.1165
ltibia 21.0348
lfoot -12.5318 3.95006
ltoes 0.603614
57
root 1.09715 17.8067 -16.9095 5.97458 0.942912 -0.0213301
lowerback 5.65912 -0.634992 -1.31605
upperback 0.305149 -0.868429 2.07803
thorax -2.80715 -0.403912 2.95276
lowerneck -19.929 -4.30041 -8.68189
upperneck 14.5267 -4.47037 5.71908
head 8.09555 -2.03644 2.75761
rclavicle 4.37326e-015 -1.55052e-014
rhumerus -31.417 -8.12128 -80.6196
rradius 33.9227
rwrist 4.55275
rhand -11.62 13.442
rfingers 7.12502
rthumb 14.4231 -16.0368
lclavicle 4.37326e-015 -1.55052e-014
lhumerus -28.426 6.28417 86.3565
lradius 28.025
lwrist -5.84288
lhand -18.5105 24.1845
lfingers 7.12502
lthumb 7.77761 54.0214
rfemur -9.98271 4.76155 20.9066
rtibia 20.7251
rfoot -10.4053 -11.724
rtoes 1.64991
lfemur -10.9054 -3.98592 -20.1961
ltibia 21.0696
lfoot -12.4818 4.03239
ltoes 0.464517
